<?xml version="1.0" standalone="no"?><!DOCTYPE svg PUBLIC "-//W3C//DTD SVG 1.1//EN" "http://www.w3.org/Graphics/SVG/1.1/DTD/svg11.dtd"><svg t="1725108477367" class="icon" viewBox="0 0 1024 1024" version="1.1" xmlns="http://www.w3.org/2000/svg" p-id="2326" xmlns:xlink="http://www.w3.org/1999/xlink" width="64" height="64"><path d="M938.666667 313.642667v220.245333a85.333333 85.333333 0 0 1-86.186667 85.333333L796.757333 618.666667 585.6 318.613333a85.333333 85.333333 0 0 0-105.194667-28.522666L384 334.058667a54.613333 54.613333 0 0 1-33.28 3.882666c-49.066667-9.749333-65.557333-26.709333-49.408-50.944 15.637333-23.466667 82.176-70.634667 199.658667-141.589333 3.072-1.877333 6.250667-3.477333 9.514666-4.757333 49.344-22.954667 105.642667-14.677333 168.896 24.853333 29.056 18.197333 93.994667 40 194.773334 65.386667A85.333333 85.333333 0 0 1 938.666667 313.642667zM85.333333 566.698667V320a85.333333 85.333333 0 0 1 85.333334-85.333333h109.098666c-5.205333 5.162667-12.416 12.224-21.589333 21.184-13.781333 13.44-18.176 23.808-17.621333 44.053333a68.821333 68.821333 0 0 0 26.005333 51.904 146.474667 146.474667 0 0 0 140.821333 23.146667l60.032-21.632a85.333333 85.333333 0 0 1 98.88 31.402666l170.432 243.968a85.333333 85.333333 0 0 1-26.368 122.24l-198.890666 118.186667a54.314667 54.314667 0 0 1-34.56 4.48l8.810666-8.832a105.856 105.856 0 0 0 0-150.058667l-172.8-172.821333a81.493333 81.493333 0 0 0-57.642666-23.786667A81.493333 81.493333 0 0 0 197.653333 541.866667l-75.456 75.434666A53.44 53.44 0 0 1 85.333333 566.698667z m206.208 27.669333l153.28 153.237333c13.44 13.44 18.688 32.938667 13.76 51.2l-7.722666 28.906667a41.344 41.344 0 0 1-26.410667 28.266667 42.048 42.048 0 0 1-38.506667-5.674667l-197.077333-143.232a53.013333 53.013333 0 0 1-6.4-80.512l32.213333-32.234667a54.336 54.336 0 0 1 38.4-15.850666c14.464 0 28.288 5.696 38.442667 15.850666v0.042667z" fill="#333333" p-id="2327"></path></svg>